<?xml version="1.0" encoding="UTF-8" standalone="no"?>
<!-- Created with Inkscape (http://www.inkscape.org/) -->

<svg
   xmlns:dc="http://purl.org/dc/elements/1.1/"
   xmlns:cc="http://creativecommons.org/ns#"
   xmlns:rdf="http://www.w3.org/1999/02/22-rdf-syntax-ns#"
   xmlns:svg="http://www.w3.org/2000/svg"
   xmlns="http://www.w3.org/2000/svg"
   xmlns:sodipodi="http://sodipodi.sourceforge.net/DTD/sodipodi-0.dtd"
   xmlns:inkscape="http://www.inkscape.org/namespaces/inkscape"
   width="210mm"
   height="297mm"
   viewBox="0 0 744.09448819 1052.3622047"
   id="svg2"
   version="1.1"
   inkscape:version="0.91 r13725"
   sodipodi:docname="Gear.svg"
   inkscape:export-filename="/home/morales/Imagens/Projetos/Sweet Monitor/Sweet Monitor.png"
   inkscape:export-xdpi="207.8084"
   inkscape:export-ydpi="207.8084">
  <defs
     id="defs4" />
  <sodipodi:namedview
     id="base"
     pagecolor="#ffffff"
     bordercolor="#666666"
     borderopacity="1.0"
     inkscape:pageopacity="0.0"
     inkscape:pageshadow="2"
     inkscape:zoom="1.4142136"
     inkscape:cx="383.2336"
     inkscape:cy="516.32111"
     inkscape:document-units="px"
     inkscape:current-layer="layer1"
     showgrid="false"
     inkscape:window-width="1920"
     inkscape:window-height="1022"
     inkscape:window-x="0"
     inkscape:window-y="27"
     inkscape:window-maximized="1">
    <inkscape:grid
       type="xygrid"
       id="grid4146" />
  </sodipodi:namedview>
  <metadata
     id="metadata7">
    <rdf:RDF>
      <cc:Work
         rdf:about="">
        <dc:format>image/svg+xml</dc:format>
        <dc:type
           rdf:resource="http://purl.org/dc/dcmitype/StillImage" />
        <dc:title></dc:title>
      </cc:Work>
    </rdf:RDF>
  </metadata>
  <g
     inkscape:label="Camada 1"
     inkscape:groupmode="layer"
     id="layer1">
    <path
       style="fill:#686868;fill-opacity:1;fill-rule:evenodd;stroke:none;stroke-width:1px;stroke-linecap:butt;stroke-linejoin:miter;stroke-opacity:0.67843137"
       d="M 391.5625 260.47266 C 382.3763 261.35832 375.26309 265.27204 373.76562 277.38086 L 372.94336 306.56641 C 355.51677 311.20728 342.08054 316.95548 329.91797 323.05664 C 330.0242 323.45733 330.14 323.85065 330.24805 324.25 L 309 303.5332 C 301.37986 297.16049 293.45215 296.84135 285 303.5332 L 251 337.73633 C 245.315 345.00622 243.25262 352.85751 251 362.2832 L 271.59375 382.98242 C 262.95558 398.81298 257.8679 412.51324 253.91406 425.5332 C 254.19679 425.70103 254.47909 425.85713 254.76172 426.02344 L 253.42383 425.69141 L 223.22852 425.64844 C 213.3552 426.74185 207.72837 434.01155 206.71289 444.74414 L 207.88867 492.95703 C 209.20496 502.09146 213.44748 509.01261 225.61328 509.93945 L 254.80664 509.39062 C 260.26119 526.57993 264.51185 537.34456 271.17773 549.20703 C 271.32177 549.15093 271.46353 549.09337 271.60742 549.03711 L 251.50977 569.98633 C 245.23682 577.60824 244.8874 585.56875 251.39648 594.08984 L 284.70898 628.40234 C 291.79689 634.14718 299.47098 636.25634 308.73242 628.52148 L 329.08789 607.93945 C 344.53991 616.69181 357.92289 621.86817 370.64648 625.90234 C 370.64735 625.90048 370.64757 625.89835 370.64844 625.89648 L 372.41211 625.88086 L 372.41211 625.88477 L 372.68359 655.73242 C 373.70603 665.61334 379.69881 671.36837 390.42383 672.46094 L 439.08594 672.07422 C 448.2296 670.8236 454.73773 666.18813 455.75195 654.0293 L 455.58984 625.62891 C 472.81788 620.298 485.30674 614.99259 497.2168 608.41211 C 497.2162 608.41014 497.21544 608.40822 497.21484 608.40625 L 497.91211 608.0332 L 498.45508 608.94727 L 519.14258 629.39062 C 526.92938 635.55858 535.74622 635.31449 544.01758 628.40039 L 577.09766 593.30469 C 582.58747 585.88629 584.44046 577.98406 576.44531 568.76758 L 554.91016 550.25781 C 563.1246 534.20332 568.49512 523.48763 572.10156 510.36719 C 572.10027 510.36652 572.09895 510.3659 572.09766 510.36523 L 572.10352 510.36523 L 572.23242 509.71289 L 599.80664 510.06641 C 609.72034 509.43703 617.45319 501.02672 618.9707 490.35352 L 618.9707 490 L 619.88086 445.84961 C 618.99425 436.66351 616.49571 427.42973 604.38672 425.93359 L 573.07812 425.99805 C 568.43543 408.57195 562.15712 396.72834 556.05469 384.56641 C 555.99069 384.58491 555.92725 384.60455 555.86328 384.62305 L 576.67969 364.60547 C 583.29464 357.19466 583.86915 349.2806 577.45312 340.61719 L 544.36328 305.5332 C 537.28036 299.61687 529.49862 297.30254 519.82812 304.74219 L 498.47656 324.6582 C 482.93262 315.51438 469.40337 309.98657 456.51758 305.61523 C 456.32304 305.9299 456.14172 306.24745 455.94922 306.5625 L 456.30664 278.96484 C 455.67835 269.05107 450.45037 263.08309 439.77734 261.56445 L 391.5625 260.47266 z M 413.29688 366.4668 A 100 100 0 0 1 513.29688 466.4668 A 100 100 0 0 1 413.29688 566.4668 A 100 100 0 0 1 313.29688 466.4668 A 100 100 0 0 1 413.29688 366.4668 z "
       id="path4214-1-4-8-1" />
  </g>
</svg>
